<mxfile host="65bd71144e">
    <diagram id="pDev1t-4RV-okR3TIxGf" name="Page-1">
        <mxGraphModel dx="970" dy="1846" grid="1" gridSize="10" guides="1" tooltips="1" connect="1" arrows="1" fold="1" page="1" pageScale="1" pageWidth="850" pageHeight="1100" math="0" shadow="0">
            <root>
                <mxCell id="0"/>
                <mxCell id="1" parent="0"/>
                <mxCell id="4" value="" style="edgeStyle=none;html=1;" edge="1" parent="1" source="2" target="3">
                    <mxGeometry relative="1" as="geometry"/>
                </mxCell>
                <mxCell id="2" value="OnDeck" style="shape=umlActor;verticalLabelPosition=bottom;verticalAlign=top;html=1;outlineConnect=0;" vertex="1" parent="1">
                    <mxGeometry x="50" y="120" width="30" height="60" as="geometry"/>
                </mxCell>
                <mxCell id="6" value="" style="edgeStyle=none;html=1;" edge="1" parent="1" source="3" target="5">
                    <mxGeometry relative="1" as="geometry"/>
                </mxCell>
                <mxCell id="3" value="VP Frontend" style="whiteSpace=wrap;html=1;aspect=fixed;" vertex="1" parent="1">
                    <mxGeometry x="170" y="110" width="80" height="80" as="geometry"/>
                </mxCell>
                <mxCell id="31" value="/vp PUT" style="edgeStyle=none;html=1;exitX=0.5;exitY=0;exitDx=0;exitDy=0;exitPerimeter=0;entryX=0;entryY=0.5;entryDx=0;entryDy=0;entryPerimeter=0;" edge="1" parent="1" source="5" target="7">
                    <mxGeometry relative="1" as="geometry"/>
                </mxCell>
                <mxCell id="57" style="edgeStyle=orthogonalEdgeStyle;html=1;exitX=1;exitY=0.21;exitDx=0;exitDy=0;exitPerimeter=0;entryX=0;entryY=0.5;entryDx=0;entryDy=0;entryPerimeter=0;" edge="1" parent="1" source="5" target="16">
                    <mxGeometry relative="1" as="geometry"/>
                </mxCell>
                <mxCell id="60" value="/sendemail" style="edgeLabel;html=1;align=center;verticalAlign=middle;resizable=0;points=[];" vertex="1" connectable="0" parent="57">
                    <mxGeometry x="0.0621" y="2" relative="1" as="geometry">
                        <mxPoint as="offset"/>
                    </mxGeometry>
                </mxCell>
                <mxCell id="58" style="edgeStyle=orthogonalEdgeStyle;html=1;exitX=1;exitY=0.8;exitDx=0;exitDy=0;exitPerimeter=0;entryX=0;entryY=0.5;entryDx=0;entryDy=0;entryPerimeter=0;" edge="1" parent="1" source="5" target="8">
                    <mxGeometry relative="1" as="geometry"/>
                </mxCell>
                <mxCell id="59" style="edgeStyle=orthogonalEdgeStyle;html=1;exitX=1;exitY=0.8;exitDx=0;exitDy=0;exitPerimeter=0;entryX=0;entryY=0.5;entryDx=0;entryDy=0;entryPerimeter=0;" edge="1" parent="1" source="5" target="9">
                    <mxGeometry relative="1" as="geometry"/>
                </mxCell>
                <mxCell id="5" value="VP Service API" style="outlineConnect=0;dashed=0;verticalLabelPosition=bottom;verticalAlign=top;align=center;html=1;shape=mxgraph.aws3.api_gateway;fillColor=#D9A741;gradientColor=none;" vertex="1" parent="1">
                    <mxGeometry x="349" y="103.5" width="76.5" height="93" as="geometry"/>
                </mxCell>
                <mxCell id="32" value="" style="edgeStyle=none;html=1;" edge="1" parent="1" source="7" target="16">
                    <mxGeometry relative="1" as="geometry"/>
                </mxCell>
                <mxCell id="33" value="Email Request" style="edgeLabel;html=1;align=center;verticalAlign=middle;resizable=0;points=[];" vertex="1" connectable="0" parent="32">
                    <mxGeometry x="-0.0766" y="1" relative="1" as="geometry">
                        <mxPoint as="offset"/>
                    </mxGeometry>
                </mxCell>
                <mxCell id="36" style="edgeStyle=none;html=1;exitX=1;exitY=0.5;exitDx=0;exitDy=0;exitPerimeter=0;entryX=0.5;entryY=0;entryDx=0;entryDy=0;entryPerimeter=0;" edge="1" parent="1" source="7" target="13">
                    <mxGeometry relative="1" as="geometry">
                        <Array as="points">
                            <mxPoint x="766" y="-64"/>
                        </Array>
                    </mxGeometry>
                </mxCell>
                <mxCell id="40" value="Write VP" style="edgeLabel;html=1;align=center;verticalAlign=middle;resizable=0;points=[];" vertex="1" connectable="0" parent="36">
                    <mxGeometry x="-0.3224" y="2" relative="1" as="geometry">
                        <mxPoint as="offset"/>
                    </mxGeometry>
                </mxCell>
                <mxCell id="7" value="Add VP" style="outlineConnect=0;dashed=0;verticalLabelPosition=top;verticalAlign=bottom;align=center;html=1;shape=mxgraph.aws3.lambda_function;fillColor=#F58534;gradientColor=none;labelPosition=center;" vertex="1" parent="1">
                    <mxGeometry x="493.75" y="-100" width="69" height="72" as="geometry"/>
                </mxCell>
                <mxCell id="44" style="edgeStyle=orthogonalEdgeStyle;html=1;exitX=1;exitY=0.5;exitDx=0;exitDy=0;exitPerimeter=0;" edge="1" parent="1" source="8">
                    <mxGeometry relative="1" as="geometry">
                        <mxPoint x="650" y="250" as="targetPoint"/>
                    </mxGeometry>
                </mxCell>
                <mxCell id="49" value="Get VPs" style="edgeLabel;html=1;align=center;verticalAlign=middle;resizable=0;points=[];" vertex="1" connectable="0" parent="44">
                    <mxGeometry x="-0.6158" y="1" relative="1" as="geometry">
                        <mxPoint as="offset"/>
                    </mxGeometry>
                </mxCell>
                <mxCell id="8" value="Get VPs" style="outlineConnect=0;dashed=0;verticalLabelPosition=bottom;verticalAlign=top;align=center;html=1;shape=mxgraph.aws3.lambda_function;fillColor=#F58534;gradientColor=none;" vertex="1" parent="1">
                    <mxGeometry x="493.75" y="330" width="69" height="72" as="geometry"/>
                </mxCell>
                <mxCell id="46" style="edgeStyle=orthogonalEdgeStyle;html=1;exitX=1;exitY=0.5;exitDx=0;exitDy=0;exitPerimeter=0;" edge="1" parent="1" source="9">
                    <mxGeometry relative="1" as="geometry">
                        <mxPoint x="650" y="250" as="targetPoint"/>
                    </mxGeometry>
                </mxCell>
                <mxCell id="47" style="edgeStyle=orthogonalEdgeStyle;html=1;exitX=1;exitY=0.5;exitDx=0;exitDy=0;exitPerimeter=0;entryX=0.5;entryY=1;entryDx=0;entryDy=0;entryPerimeter=0;" edge="1" parent="1" source="9" target="23">
                    <mxGeometry relative="1" as="geometry"/>
                </mxCell>
                <mxCell id="48" value="Verify Signature" style="edgeLabel;html=1;align=center;verticalAlign=middle;resizable=0;points=[];" vertex="1" connectable="0" parent="47">
                    <mxGeometry x="0.1328" y="-2" relative="1" as="geometry">
                        <mxPoint x="58" y="-29" as="offset"/>
                    </mxGeometry>
                </mxCell>
                <mxCell id="51" value="update invite status" style="edgeLabel;html=1;align=center;verticalAlign=middle;resizable=0;points=[];" vertex="1" connectable="0" parent="47">
                    <mxGeometry x="-0.6757" y="-2" relative="1" as="geometry">
                        <mxPoint x="48" y="-49" as="offset"/>
                    </mxGeometry>
                </mxCell>
                <mxCell id="9" value="Handle Invite Response" style="outlineConnect=0;dashed=0;verticalLabelPosition=bottom;verticalAlign=top;align=center;html=1;shape=mxgraph.aws3.lambda_function;fillColor=#F58534;gradientColor=none;" vertex="1" parent="1">
                    <mxGeometry x="490" y="451" width="69" height="72" as="geometry"/>
                </mxCell>
                <mxCell id="38" style="edgeStyle=orthogonalEdgeStyle;html=1;exitX=1;exitY=0.5;exitDx=0;exitDy=0;exitPerimeter=0;entryX=0.5;entryY=1;entryDx=0;entryDy=0;entryPerimeter=0;" edge="1" parent="1" source="10" target="13">
                    <mxGeometry relative="1" as="geometry"/>
                </mxCell>
                <mxCell id="41" value="Update Email Status" style="edgeLabel;html=1;align=center;verticalAlign=middle;resizable=0;points=[];" vertex="1" connectable="0" parent="38">
                    <mxGeometry x="0.5623" y="-1" relative="1" as="geometry">
                        <mxPoint as="offset"/>
                    </mxGeometry>
                </mxCell>
                <mxCell id="39" style="edgeStyle=orthogonalEdgeStyle;html=1;exitX=1;exitY=0.5;exitDx=0;exitDy=0;exitPerimeter=0;" edge="1" parent="1" source="10" target="23">
                    <mxGeometry relative="1" as="geometry"/>
                </mxCell>
                <mxCell id="42" value="Create JWT signature" style="edgeLabel;html=1;align=center;verticalAlign=middle;resizable=0;points=[];" vertex="1" connectable="0" parent="39">
                    <mxGeometry x="0.6181" y="-1" relative="1" as="geometry">
                        <mxPoint as="offset"/>
                    </mxGeometry>
                </mxCell>
                <mxCell id="61" style="edgeStyle=orthogonalEdgeStyle;html=1;exitX=0;exitY=0.5;exitDx=0;exitDy=0;exitPerimeter=0;entryX=0.58;entryY=0;entryDx=0;entryDy=0;entryPerimeter=0;" edge="1" parent="1" source="10" target="29">
                    <mxGeometry relative="1" as="geometry"/>
                </mxCell>
                <mxCell id="10" value="SendEmail" style="outlineConnect=0;dashed=0;verticalLabelPosition=bottom;verticalAlign=top;align=center;html=1;shape=mxgraph.aws3.lambda_function;fillColor=#F58534;gradientColor=none;" vertex="1" parent="1">
                    <mxGeometry x="493.75" y="210" width="69" height="72" as="geometry"/>
                </mxCell>
                <mxCell id="13" value="VPs" style="outlineConnect=0;dashed=0;verticalLabelPosition=middle;verticalAlign=middle;align=left;html=1;shape=mxgraph.aws3.dynamo_db;fillColor=#2E73B8;gradientColor=none;labelPosition=right;" vertex="1" parent="1">
                    <mxGeometry x="730" y="36" width="72" height="81" as="geometry"/>
                </mxCell>
                <mxCell id="34" value="" style="edgeStyle=none;html=1;" edge="1" parent="1" source="16" target="10">
                    <mxGeometry relative="1" as="geometry"/>
                </mxCell>
                <mxCell id="35" value="Email Request" style="edgeLabel;html=1;align=center;verticalAlign=middle;resizable=0;points=[];" vertex="1" connectable="0" parent="34">
                    <mxGeometry x="-0.0575" y="-3" relative="1" as="geometry">
                        <mxPoint as="offset"/>
                    </mxGeometry>
                </mxCell>
                <mxCell id="16" value="Email Queue" style="outlineConnect=0;dashed=0;verticalLabelPosition=middle;verticalAlign=middle;align=left;html=1;shape=mxgraph.aws3.sqs;fillColor=#D9A741;gradientColor=none;labelPosition=right;" vertex="1" parent="1">
                    <mxGeometry x="490" y="30" width="76.5" height="93" as="geometry"/>
                </mxCell>
                <mxCell id="23" value="KMS Key" style="outlineConnect=0;dashed=0;verticalLabelPosition=middle;verticalAlign=middle;align=left;html=1;shape=mxgraph.aws3.kms;fillColor=#759C3E;gradientColor=none;labelPosition=right;" vertex="1" parent="1">
                    <mxGeometry x="727.75" y="337" width="76.5" height="93" as="geometry"/>
                </mxCell>
                <mxCell id="54" style="edgeStyle=orthogonalEdgeStyle;html=1;exitX=0;exitY=0.48;exitDx=0;exitDy=0;exitPerimeter=0;entryX=1;entryY=0.3333333333333333;entryDx=0;entryDy=0;entryPerimeter=0;" edge="1" parent="1" source="29" target="30">
                    <mxGeometry relative="1" as="geometry"/>
                </mxCell>
                <mxCell id="29" value="" style="outlineConnect=0;dashed=0;verticalLabelPosition=bottom;verticalAlign=top;align=center;html=1;shape=mxgraph.aws3.ses;fillColor=#D9A741;gradientColor=none;" vertex="1" parent="1">
                    <mxGeometry x="310" y="282" width="79.5" height="93" as="geometry"/>
                </mxCell>
                <mxCell id="56" value="Clicks accept/reject link" style="edgeStyle=orthogonalEdgeStyle;html=1;exitX=0.5;exitY=0;exitDx=0;exitDy=0;exitPerimeter=0;entryX=0.5;entryY=1;entryDx=0;entryDy=0;" edge="1" parent="1" source="30" target="3">
                    <mxGeometry relative="1" as="geometry"/>
                </mxCell>
                <mxCell id="30" value="VP" style="shape=umlActor;verticalLabelPosition=bottom;verticalAlign=top;html=1;outlineConnect=0;" vertex="1" parent="1">
                    <mxGeometry x="195" y="310" width="30" height="60" as="geometry"/>
                </mxCell>
            </root>
        </mxGraphModel>
    </diagram>
</mxfile>